<?xml version="1.0" standalone="no"?>
<!DOCTYPE svg PUBLIC "-//W3C//DTD SVG 20010904//EN"
 "http://www.w3.org/TR/2001/REC-SVG-20010904/DTD/svg10.dtd">
<svg version="1.0" xmlns="http://www.w3.org/2000/svg"
 width="223.000000pt" height="223.000000pt" viewBox="0 0 223.000000 223.000000"
 preserveAspectRatio="xMidYMid meet">
<metadata>
Created by potrace 1.11, written by Peter Selinger 2001-2013
</metadata>
<g transform="translate(0.000000,223.000000) scale(0.100000,-0.100000)"
fill="#000000" stroke="none">
<path d="M983 1939 c-115 -32 -192 -78 -278 -164 -61 -60 -90 -99 -117 -155
-82 -169 -86 -359 -11 -529 13 -30 117 -178 230 -330 114 -152 206 -282 206
-288 0 -7 2 -11 5 -8 5 5 19 -10 50 -53 12 -18 18 -31 11 -30 -6 2 -13 -2 -15
-7 -2 -6 5 -11 17 -12 11 -1 29 -11 39 -23 12 -14 21 -17 25 -10 5 8 11 7 23
-2 13 -11 15 -11 10 3 -5 13 -2 16 13 12 10 -3 19 0 19 6 0 6 -4 10 -9 8 -5
-1 -9 3 -9 8 0 6 4 9 8 8 5 -2 8 5 7 15 -1 19 41 82 55 82 5 0 6 5 3 10 -3 6
-1 10 5 10 6 0 14 8 17 17 6 16 219 311 324 448 54 72 106 179 125 260 20 88
14 223 -15 315 -62 198 -237 362 -438 411 -77 19 -229 18 -300 -2z"/>
<path d="M956 445 c-3 -9 -11 -13 -17 -9 -8 5 -9 3 -4 -5 6 -10 11 -9 23 3 9
8 13 18 10 21 -3 3 -8 -1 -12 -10z"/>
<path d="M1255 430 c-3 -5 -1 -10 4 -10 6 0 11 5 11 10 0 6 -2 10 -4 10 -3 0
-8 -4 -11 -10z"/>
<path d="M1353 425 c0 -8 4 -12 9 -9 4 3 8 9 8 15 0 5 -4 9 -8 9 -5 0 -9 -7
-9 -15z"/>
<path d="M1030 422 c0 -7 5 -12 10 -12 18 0 6 -25 -15 -30 -17 -5 -18 -7 -3
-12 9 -4 23 1 32 11 15 16 15 19 -4 36 -11 10 -20 13 -20 7z"/>
<path d="M830 417 c0 -5 5 -17 11 -29 9 -17 8 -19 -8 -14 -26 8 -56 -15 -47
-37 5 -14 9 -15 20 -6 17 14 19 -2 2 -19 -9 -9 -9 -12 0 -12 7 0 12 5 12 11 0
5 5 7 10 4 6 -4 7 -11 4 -17 -4 -7 -2 -8 5 -4 9 6 9 11 1 21 -7 8 -7 15 -1 19
5 4 12 -3 16 -14 7 -22 20 -26 30 -9 5 7 14 3 26 -10 22 -24 38 -29 19 -6 -10
12 -9 16 5 22 12 4 24 -1 37 -17 l19 -23 -5 26 c-3 20 1 30 15 37 14 8 19 8
17 -1 -2 -6 3 -14 10 -16 7 -3 11 -1 10 4 -2 4 2 8 7 8 6 0 9 -4 7 -8 -1 -5 3
-7 10 -4 7 2 12 10 10 16 -1 7 2 10 8 6 6 -3 8 -11 5 -16 -4 -5 -2 -9 3 -9 5
0 14 -10 19 -22 10 -21 11 -22 18 -5 11 26 -25 59 -67 62 -18 2 -42 6 -52 11
-15 6 -17 4 -11 -7 7 -11 5 -11 -10 1 -17 13 -18 13 -13 -1 8 -20 -6 -46 -16
-30 -4 6 -2 11 4 11 6 0 8 5 5 11 -5 6 -12 4 -22 -8 -8 -10 -11 -12 -7 -4 5 9
3 12 -4 7 -7 -4 -12 -5 -12 -2 0 9 64 40 78 38 6 -2 12 2 12 8 0 6 4 8 10 5 6
-3 7 1 3 10 -3 9 -9 13 -12 8 -3 -5 -15 -8 -26 -8 -11 0 -28 -3 -39 -8 -15 -8
-16 -11 -5 -19 12 -8 11 -9 -1 -5 -9 2 -14 14 -13 28 1 13 -1 18 -3 12 -4 -9
-11 -10 -24 -3 -16 9 -18 7 -15 -10 5 -27 -25 -23 -42 5 -7 11 -12 16 -13 12z
m87 -37 c9 -13 9 -21 2 -25 -7 -5 -6 -11 1 -20 7 -8 7 -15 1 -19 -5 -4 -13 -2
-16 4 -5 8 -11 8 -20 0 -10 -9 -16 -7 -24 9 -7 12 -17 18 -26 15 -9 -4 -15 0
-15 7 0 11 -2 11 -10 -1 -5 -8 -12 -11 -17 -7 -10 11 17 27 33 20 7 -3 19 -1
26 3 7 5 20 9 28 9 8 0 14 6 13 13 -4 19 11 14 24 -8z m53 10 c0 -5 -5 -10
-11 -10 -5 0 -7 5 -4 10 3 6 8 10 11 10 2 0 4 -4 4 -10z m148 -85 c-3 -3 -9 2
-12 12 -6 14 -5 15 5 6 7 -7 10 -15 7 -18z"/>
<path d="M895 369 c-4 -5 -13 -8 -21 -5 -19 7 -24 -6 -9 -27 9 -12 15 -15 20
-7 5 8 12 7 23 -2 15 -11 15 -11 5 3 -9 11 -9 19 -2 26 7 7 7 13 1 17 -6 3
-14 1 -17 -5z m2 -16 c-14 -14 -19 -15 -29 -4 -11 10 -10 11 3 6 10 -4 20 -2
24 4 3 6 9 11 13 11 3 0 -1 -8 -11 -17z"/>
<path d="M855 410 c3 -5 8 -10 11 -10 2 0 4 5 4 10 0 6 -5 10 -11 10 -5 0 -7
-4 -4 -10z"/>
<path d="M1219 415 c0 -5 -2 -20 -3 -32 -1 -12 4 -25 11 -27 8 -3 11 -1 8 4
-3 6 -1 11 4 11 28 4 52 7 57 8 4 0 1 7 -5 14 -6 8 -7 17 -3 22 4 4 -4 2 -18
-5 -29 -16 -30 -16 -41 2 -5 7 -9 9 -10 3z m31 -27 c0 -4 -4 -8 -9 -8 -6 0
-12 4 -15 8 -3 5 1 9 9 9 8 0 15 -4 15 -9z m34 4 c3 -5 -1 -9 -9 -9 -8 0 -15
4 -15 9 0 4 4 8 9 8 6 0 12 -4 15 -8z"/>
<path d="M1305 404 c6 -23 -10 -41 -35 -39 -8 0 -18 -4 -22 -10 -4 -5 -13 -10
-19 -10 -7 0 -14 -5 -16 -12 -6 -16 27 -10 38 8 5 8 9 10 9 6 0 -4 9 -3 20 3
15 8 20 8 20 -1 0 -8 4 -8 15 1 11 9 13 15 5 20 -8 5 -6 9 5 13 10 5 14 3 9
-5 -5 -7 -3 -8 6 -3 8 5 11 4 7 -2 -4 -6 1 -10 11 -9 9 0 17 -6 17 -14 0 -8 5
-22 10 -30 7 -13 6 -13 -7 -2 -9 8 -14 20 -11 28 6 17 -13 19 -23 2 -5 -7 -2
-8 7 -3 12 7 12 5 1 -6 -11 -12 -14 -12 -21 0 -5 8 -11 9 -15 3 -3 -6 -3 -12
1 -15 5 -2 3 -3 -2 -1 -6 1 -11 -7 -11 -17 0 -16 2 -17 16 -4 28 25 35 16 9
-11 -23 -26 -23 -26 -1 -13 12 8 22 17 22 21 0 4 11 5 25 2 23 -4 25 -2 20 24
-3 20 -1 29 9 29 10 0 13 -11 11 -33 -1 -19 2 -31 6 -28 5 3 9 12 9 20 0 8 4
13 8 10 4 -2 14 -1 22 5 11 6 12 9 2 9 -7 0 -10 5 -7 10 5 8 11 7 21 -1 8 -6
14 -7 14 -2 0 5 -12 15 -26 21 -14 7 -22 17 -19 22 3 6 1 10 -5 10 -7 0 -10
-7 -7 -14 4 -10 1 -13 -8 -9 -8 3 -12 9 -9 14 3 5 0 9 -6 9 -7 0 -9 -8 -4 -22
7 -23 7 -23 -15 -4 -17 15 -19 22 -9 29 10 6 9 7 -2 4 -8 -2 -14 -10 -12 -16
2 -13 -15 -15 -20 -2 -1 5 -10 11 -18 13 -8 2 -19 8 -23 13 -5 6 -6 1 -2 -11z
m142 -54 c-1 -22 -23 -22 -23 0 0 9 6 17 12 17 7 0 12 -8 11 -17z"/>
<path d="M1450 416 c0 -2 7 -7 16 -10 8 -3 12 -2 9 4 -6 10 -25 14 -25 6z"/>
<path d="M750 392 c0 -4 9 -8 20 -9 11 -1 20 2 20 5 0 4 -9 8 -20 9 -11 1 -20
-2 -20 -5z"/>
<path d="M1494 383 c3 -20 31 -30 40 -14 4 5 -3 7 -16 3 -14 -3 -19 -1 -14 6
3 6 2 13 -3 16 -5 4 -8 -2 -7 -11z"/>
<path d="M720 370 c-12 -7 -10 -9 7 -7 12 0 19 5 17 9 -6 10 -6 10 -24 -2z"/>
<path d="M1511 341 c-8 -5 -15 -19 -16 -30 -1 -11 2 -18 7 -15 5 3 7 11 5 17
-2 7 5 17 17 24 12 7 17 12 11 12 -5 1 -16 -3 -24 -8z"/>
<path d="M762 326 c7 -8 15 -12 17 -11 5 6 -10 25 -20 25 -5 0 -4 -6 3 -14z"/>
<path d="M1270 331 c0 -5 5 -11 12 -13 7 -3 5 -7 -6 -11 -9 -4 -15 -3 -11 2 3
5 1 12 -4 15 -5 4 -12 2 -16 -4 -4 -6 -11 -8 -16 -5 -5 4 -9 1 -9 -6 0 -7 -6
-5 -13 6 -10 13 -16 15 -21 6 -6 -9 -11 -9 -21 -1 -9 8 -15 8 -20 0 -10 -16 4
-30 22 -23 12 5 14 3 8 -8 -8 -12 -6 -12 8 0 14 11 20 11 34 0 11 -10 14 -10
9 -1 -4 6 -3 12 3 12 5 0 13 -5 16 -10 5 -8 11 -8 19 -1 7 6 16 8 19 4 4 -3 7
-2 8 3 0 5 2 17 4 27 2 9 -3 17 -11 17 -8 0 -14 -4 -14 -9z m-13 -26 c0 -8 -4
-12 -9 -9 -5 3 -6 10 -3 15 9 13 12 11 12 -6z"/>
<path d="M1002 308 c8 -12 20 -23 27 -24 6 -1 7 0 1 3 -5 2 -7 10 -4 15 4 7 2
8 -4 4 -7 -4 -12 -1 -12 8 0 9 -5 16 -11 16 -7 0 -6 -8 3 -22z"/>
<path d="M750 311 c0 -6 4 -13 10 -16 6 -3 7 1 4 9 -7 18 -14 21 -14 7z"/>
<path d="M1041 315 c0 -5 3 -17 9 -25 8 -12 10 -12 16 3 3 9 11 14 17 10 6 -3
7 -1 3 6 -6 9 -11 9 -21 1 -10 -8 -14 -7 -18 2 -3 7 -6 9 -6 3z"/>
<path d="M1460 309 c0 -5 5 -7 10 -4 6 3 10 8 10 11 0 2 -4 4 -10 4 -5 0 -10
-5 -10 -11z"/>
<path d="M947 294 c6 -15 23 -19 23 -5 0 5 -7 11 -14 14 -10 4 -13 1 -9 -9z"/>
<path d="M1447 289 c7 -7 15 -10 18 -7 3 3 -2 9 -12 12 -14 6 -15 5 -6 -5z"/>
<path d="M864 272 c23 -26 23 -26 23 -7 0 8 -3 13 -5 10 -3 -3 -12 1 -21 7
-10 8 -9 4 3 -10z"/>
<path d="M1070 275 c-14 -8 -20 -14 -14 -15 5 0 19 7 30 15 24 18 16 19 -16 0z"/>
<path d="M1370 281 c0 -7 -5 -9 -12 -5 -7 5 -8 3 -3 -5 5 -9 10 -10 18 -2 6 6
8 14 4 18 -4 3 -7 1 -7 -6z"/>
<path d="M911 263 c7 -12 15 -20 18 -17 3 2 -3 12 -13 22 -17 16 -18 16 -5 -5z"/>
<path d="M1130 269 c0 -5 5 -7 10 -4 6 3 10 8 10 11 0 2 -4 4 -10 4 -5 0 -10
-5 -10 -11z"/>
<path d="M1193 265 c0 -8 4 -12 9 -9 4 3 8 9 8 15 0 5 -4 9 -8 9 -5 0 -9 -7
-9 -15z"/>
<path d="M1396 268 c3 -5 10 -6 15 -3 13 9 11 12 -6 12 -8 0 -12 -4 -9 -9z"/>
<path d="M1016 252 c-3 -5 1 -9 9 -9 8 0 12 4 9 9 -3 4 -7 8 -9 8 -2 0 -6 -4
-9 -8z"/>
<path d="M1295 250 c-3 -5 -1 -10 4 -10 6 0 11 5 11 10 0 6 -2 10 -4 10 -3 0
-8 -4 -11 -10z"/>
</g>
</svg>
